M48
; DRILL file {KiCad 9.0.1} date 2026-08-13T22:54:38+0100
; FORMAT={-:-/ absolute / metric / decimal}
; #@! TF.CreationDate,2026-08-13T22:54:38+01:00
; #@! TF.GenerationSoftware,Kicad,Pcbnew,9.0.1
; #@! TF.FileFunction,Plated,1,2,PTH
FMAT,2
METRIC
; #@! TA.AperFunction,Plated,PTH,ViaDrill
T1C0.300
; #@! TA.AperFunction,Plated,PTH,ComponentDrill
T2C0.600
; #@! TA.AperFunction,Plated,PTH,ComponentDrill
T3C0.750
; #@! TA.AperFunction,Plated,PTH,ComponentDrill
T4C0.800
; #@! TA.AperFunction,Plated,PTH,ComponentDrill
T5C1.000
; #@! TA.AperFunction,Plated,PTH,ComponentDrill
T6C1.300
; #@! TA.AperFunction,Plated,PTH,ComponentDrill
T7C1.800
%
G90
G05
T1
X108.5Y-125.5
X108.5Y-127.5
X133.0Y-84.82
X133.426Y-89.674
X134.8Y-90.2
X134.9Y-89.0
X136.1Y-87.0
X136.1Y-90.0
X136.1Y-91.5
X139.0Y-92.5
X141.326Y-95.326
X142.25Y-96.25
X143.0Y-134.571
X145.0Y-135.171
X148.5Y-112.5
X148.5Y-115.0
X149.1Y-116.0
X149.123Y-111.998
X153.5Y-137.4
X154.5Y-138.0
X156.0Y-135.171
X156.5Y-138.0
X157.0Y-105.699
X157.0Y-134.571
X158.5Y-138.6
X159.801Y-105.699
X160.464Y-133.864
X160.5Y-138.5
X161.0Y-103.5
X161.499Y-85.0
X161.499Y-104.125
X162.0Y-116.0
X162.0Y-118.5
X162.699Y-115.5
X162.704Y-117.505
X163.0Y-137.0
X163.121Y-114.82
X163.501Y-114.0
X163.504Y-116.705
X164.156Y-116.052
X164.303Y-101.25
X164.325Y-113.976
X164.5Y-100.0
X164.704Y-133.9
X165.0Y-115.5
X165.5Y-134.6
X166.2Y-81.8
X166.3Y-79.2
X166.5Y-94.0
X166.5Y-135.1
X172.0Y-93.5
X177.5Y-129.5
X179.0Y-83.5
T2
X107.2Y-109.97
X108.26Y-111.03
X117.2Y-111.03
X118.26Y-109.97
T3
X111.46Y-107.36
X112.73Y-107.36
X114.0Y-107.36
T4
X106.0Y-73.42
X106.0Y-83.58
X108.0Y-58.0
X108.0Y-60.54
X108.0Y-63.08
X108.0Y-65.62
X108.0Y-68.16
X109.0Y-73.42
X109.0Y-83.58
X112.0Y-73.42
X112.0Y-83.58
X113.08Y-58.0
X113.08Y-60.54
X113.08Y-63.08
X113.08Y-65.62
X113.08Y-68.16
X115.0Y-73.42
X115.0Y-83.58
X115.5Y-122.0
X117.92Y-57.5
X117.92Y-60.5
X117.92Y-63.5
X117.92Y-66.5
X120.5Y-122.0
X123.0Y-75.96
X123.0Y-78.5
X123.0Y-81.04
X123.0Y-83.58
X123.0Y-86.12
X123.0Y-88.66
X123.0Y-91.2
X123.0Y-93.74
X123.0Y-122.0
X124.0Y-97.5
X125.5Y-108.84
X125.5Y-119.0
X128.0Y-122.0
X128.08Y-57.5
X128.08Y-60.5
X128.08Y-63.5
X128.08Y-66.5
X129.0Y-97.5
X130.62Y-75.96
X130.62Y-78.5
X130.62Y-81.04
X130.62Y-83.58
X130.62Y-86.12
X130.62Y-88.66
X130.62Y-91.2
X130.62Y-93.74
X134.5Y-134.0
X134.5Y-139.0
X138.38Y-132.38
X138.38Y-140.0
X139.5Y-96.5
X139.5Y-106.66
X140.92Y-92.802
X140.92Y-132.38
X140.92Y-140.0
X141.993Y-90.5
X143.067Y-88.198
X143.46Y-132.38
X143.46Y-140.0
X146.0Y-132.38
X146.0Y-140.0
X148.54Y-132.38
X148.54Y-140.0
X151.08Y-132.38
X151.08Y-140.0
X153.62Y-132.38
X153.62Y-140.0
X156.16Y-132.38
X156.16Y-140.0
X157.39Y-102.453
X158.7Y-132.38
X158.7Y-140.0
X160.61Y-95.547
X161.24Y-132.38
X161.24Y-140.0
X168.5Y-76.0
X168.5Y-78.54
X168.5Y-81.08
X168.5Y-83.62
X168.5Y-86.16
X168.5Y-88.7
X168.5Y-91.24
X168.5Y-93.78
X169.92Y-57.5
X169.92Y-60.5
X169.92Y-63.5
X169.92Y-66.5
X170.0Y-97.5
X172.0Y-122.0
X174.5Y-108.92
X174.5Y-119.08
X175.0Y-97.5
X176.12Y-76.0
X176.12Y-78.54
X176.12Y-81.08
X176.12Y-83.62
X176.12Y-86.16
X176.12Y-88.7
X176.12Y-91.24
X176.12Y-93.78
X177.0Y-122.0
X179.5Y-122.0
X180.08Y-57.5
X180.08Y-60.5
X180.08Y-63.5
X180.08Y-66.5
X183.0Y-73.5
X183.0Y-83.66
X184.5Y-122.0
X184.92Y-58.0
X184.92Y-60.54
X184.92Y-63.08
X184.92Y-65.62
X184.92Y-68.16
X186.0Y-73.5
X186.0Y-83.66
X189.0Y-73.5
X189.0Y-83.66
X189.0Y-104.42
X189.0Y-114.58
X190.0Y-58.0
X190.0Y-60.54
X190.0Y-63.08
X190.0Y-65.62
X190.0Y-68.16
X192.0Y-73.5
X192.0Y-83.66
T5
X103.96Y-124.0
X103.96Y-126.54
X103.96Y-130.46
X103.96Y-133.0
X106.5Y-124.0
X106.5Y-126.54
X106.5Y-130.46
X106.5Y-133.0
X115.9Y-128.88
X118.4Y-128.88
X120.9Y-128.88
X141.84Y-58.572
X144.38Y-58.572
X146.92Y-58.572
X148.894Y-98.944
X149.46Y-58.572
X152.0Y-58.572
X152.106Y-92.056
X154.54Y-58.572
X157.08Y-58.572
X179.0Y-128.88
X181.5Y-128.88
X184.0Y-128.88
X195.0Y-107.8
X195.0Y-110.34
X195.0Y-112.88
X195.0Y-115.42
X195.0Y-117.96
X195.0Y-120.5
T6
X131.0Y-113.38
X131.0Y-118.38
X143.5Y-113.38
X143.5Y-118.38
X156.5Y-113.38
X156.5Y-118.38
X169.0Y-113.38
X169.0Y-118.38
T5
G00X109.5Y-96.0
M15
G01X109.5Y-98.0
M16
G05
G00X111.5Y-101.7
M15
G01X113.5Y-101.7
M16
G05
G00X115.5Y-96.0
M15
G01X115.5Y-98.0
M16
G05
T7
G00X114.0Y-135.73
M15
G01X114.0Y-136.03
M16
G05
G00X122.8Y-135.73
M15
G01X122.8Y-136.03
M16
G05
G00X177.1Y-135.73
M15
G01X177.1Y-136.03
M16
G05
G00X185.9Y-135.73
M15
G01X185.9Y-136.03
M16
G05
M30
