%TF.GenerationSoftware,KiCad,Pcbnew,9.0.1*%
%TF.CreationDate,2026-08-13T22:54:35+01:00*%
%TF.ProjectId,pcb,7063622e-6b69-4636-9164-5f7063625858,rev?*%
%TF.SameCoordinates,Original*%
%TF.FileFunction,Legend,Bot*%
%TF.FilePolarity,Positive*%
%FSLAX46Y46*%
G04 Gerber Fmt 4.6, Leading zero omitted, Abs format (unit mm)*
G04 Created by KiCad (PCBNEW 9.0.1) date 2026-08-13 22:54:35*
%MOMM*%
%LPD*%
G01*
G04 APERTURE LIST*
%ADD10C,0.300000*%
%ADD11C,0.000000*%
G04 APERTURE END LIST*
D10*
X154802632Y-56800828D02*
X154802632Y-56015114D01*
X154802632Y-56015114D02*
X154874060Y-55872257D01*
X154874060Y-55872257D02*
X155016917Y-55800828D01*
X155016917Y-55800828D02*
X155302632Y-55800828D01*
X155302632Y-55800828D02*
X155445489Y-55872257D01*
X154802632Y-56729400D02*
X154945489Y-56800828D01*
X154945489Y-56800828D02*
X155302632Y-56800828D01*
X155302632Y-56800828D02*
X155445489Y-56729400D01*
X155445489Y-56729400D02*
X155516917Y-56586542D01*
X155516917Y-56586542D02*
X155516917Y-56443685D01*
X155516917Y-56443685D02*
X155445489Y-56300828D01*
X155445489Y-56300828D02*
X155302632Y-56229400D01*
X155302632Y-56229400D02*
X154945489Y-56229400D01*
X154945489Y-56229400D02*
X154802632Y-56157971D01*
X154159774Y-56729400D02*
X154016917Y-56800828D01*
X154016917Y-56800828D02*
X153731203Y-56800828D01*
X153731203Y-56800828D02*
X153588346Y-56729400D01*
X153588346Y-56729400D02*
X153516917Y-56586542D01*
X153516917Y-56586542D02*
X153516917Y-56515114D01*
X153516917Y-56515114D02*
X153588346Y-56372257D01*
X153588346Y-56372257D02*
X153731203Y-56300828D01*
X153731203Y-56300828D02*
X153945489Y-56300828D01*
X153945489Y-56300828D02*
X154088346Y-56229400D01*
X154088346Y-56229400D02*
X154159774Y-56086542D01*
X154159774Y-56086542D02*
X154159774Y-56015114D01*
X154159774Y-56015114D02*
X154088346Y-55872257D01*
X154088346Y-55872257D02*
X153945489Y-55800828D01*
X153945489Y-55800828D02*
X153731203Y-55800828D01*
X153731203Y-55800828D02*
X153588346Y-55872257D01*
X152874060Y-56800828D02*
X152874060Y-55800828D01*
X152874060Y-55943685D02*
X152802631Y-55872257D01*
X152802631Y-55872257D02*
X152659774Y-55800828D01*
X152659774Y-55800828D02*
X152445488Y-55800828D01*
X152445488Y-55800828D02*
X152302631Y-55872257D01*
X152302631Y-55872257D02*
X152231203Y-56015114D01*
X152231203Y-56015114D02*
X152231203Y-56800828D01*
X152231203Y-56015114D02*
X152159774Y-55872257D01*
X152159774Y-55872257D02*
X152016917Y-55800828D01*
X152016917Y-55800828D02*
X151802631Y-55800828D01*
X151802631Y-55800828D02*
X151659774Y-55872257D01*
X151659774Y-55872257D02*
X151588345Y-56015114D01*
X151588345Y-56015114D02*
X151588345Y-56800828D01*
X150874060Y-56229400D02*
X149731203Y-56229400D01*
X149016917Y-55800828D02*
X149016917Y-57300828D01*
X149016917Y-55872257D02*
X148874060Y-55800828D01*
X148874060Y-55800828D02*
X148588345Y-55800828D01*
X148588345Y-55800828D02*
X148445488Y-55872257D01*
X148445488Y-55872257D02*
X148374060Y-55943685D01*
X148374060Y-55943685D02*
X148302631Y-56086542D01*
X148302631Y-56086542D02*
X148302631Y-56515114D01*
X148302631Y-56515114D02*
X148374060Y-56657971D01*
X148374060Y-56657971D02*
X148445488Y-56729400D01*
X148445488Y-56729400D02*
X148588345Y-56800828D01*
X148588345Y-56800828D02*
X148874060Y-56800828D01*
X148874060Y-56800828D02*
X149016917Y-56729400D01*
X147445488Y-56800828D02*
X147588345Y-56729400D01*
X147588345Y-56729400D02*
X147659774Y-56657971D01*
X147659774Y-56657971D02*
X147731202Y-56515114D01*
X147731202Y-56515114D02*
X147731202Y-56086542D01*
X147731202Y-56086542D02*
X147659774Y-55943685D01*
X147659774Y-55943685D02*
X147588345Y-55872257D01*
X147588345Y-55872257D02*
X147445488Y-55800828D01*
X147445488Y-55800828D02*
X147231202Y-55800828D01*
X147231202Y-55800828D02*
X147088345Y-55872257D01*
X147088345Y-55872257D02*
X147016917Y-55943685D01*
X147016917Y-55943685D02*
X146945488Y-56086542D01*
X146945488Y-56086542D02*
X146945488Y-56515114D01*
X146945488Y-56515114D02*
X147016917Y-56657971D01*
X147016917Y-56657971D02*
X147088345Y-56729400D01*
X147088345Y-56729400D02*
X147231202Y-56800828D01*
X147231202Y-56800828D02*
X147445488Y-56800828D01*
X146302631Y-55800828D02*
X146302631Y-56800828D01*
X146302631Y-55943685D02*
X146231202Y-55872257D01*
X146231202Y-55872257D02*
X146088345Y-55800828D01*
X146088345Y-55800828D02*
X145874059Y-55800828D01*
X145874059Y-55800828D02*
X145731202Y-55872257D01*
X145731202Y-55872257D02*
X145659774Y-56015114D01*
X145659774Y-56015114D02*
X145659774Y-56800828D01*
X144302631Y-55800828D02*
X144302631Y-57015114D01*
X144302631Y-57015114D02*
X144374059Y-57157971D01*
X144374059Y-57157971D02*
X144445488Y-57229400D01*
X144445488Y-57229400D02*
X144588345Y-57300828D01*
X144588345Y-57300828D02*
X144802631Y-57300828D01*
X144802631Y-57300828D02*
X144945488Y-57229400D01*
X144302631Y-56729400D02*
X144445488Y-56800828D01*
X144445488Y-56800828D02*
X144731202Y-56800828D01*
X144731202Y-56800828D02*
X144874059Y-56729400D01*
X144874059Y-56729400D02*
X144945488Y-56657971D01*
X144945488Y-56657971D02*
X145016916Y-56515114D01*
X145016916Y-56515114D02*
X145016916Y-56086542D01*
X145016916Y-56086542D02*
X144945488Y-55943685D01*
X144945488Y-55943685D02*
X144874059Y-55872257D01*
X144874059Y-55872257D02*
X144731202Y-55800828D01*
X144731202Y-55800828D02*
X144445488Y-55800828D01*
X144445488Y-55800828D02*
X144302631Y-55872257D01*
X157945489Y-61800828D02*
X157945489Y-60800828D01*
X157945489Y-60943685D02*
X157874060Y-60872257D01*
X157874060Y-60872257D02*
X157731203Y-60800828D01*
X157731203Y-60800828D02*
X157516917Y-60800828D01*
X157516917Y-60800828D02*
X157374060Y-60872257D01*
X157374060Y-60872257D02*
X157302632Y-61015114D01*
X157302632Y-61015114D02*
X157302632Y-61800828D01*
X157302632Y-61015114D02*
X157231203Y-60872257D01*
X157231203Y-60872257D02*
X157088346Y-60800828D01*
X157088346Y-60800828D02*
X156874060Y-60800828D01*
X156874060Y-60800828D02*
X156731203Y-60872257D01*
X156731203Y-60872257D02*
X156659774Y-61015114D01*
X156659774Y-61015114D02*
X156659774Y-61800828D01*
X155302632Y-61800828D02*
X155302632Y-61015114D01*
X155302632Y-61015114D02*
X155374060Y-60872257D01*
X155374060Y-60872257D02*
X155516917Y-60800828D01*
X155516917Y-60800828D02*
X155802632Y-60800828D01*
X155802632Y-60800828D02*
X155945489Y-60872257D01*
X155302632Y-61729400D02*
X155445489Y-61800828D01*
X155445489Y-61800828D02*
X155802632Y-61800828D01*
X155802632Y-61800828D02*
X155945489Y-61729400D01*
X155945489Y-61729400D02*
X156016917Y-61586542D01*
X156016917Y-61586542D02*
X156016917Y-61443685D01*
X156016917Y-61443685D02*
X155945489Y-61300828D01*
X155945489Y-61300828D02*
X155802632Y-61229400D01*
X155802632Y-61229400D02*
X155445489Y-61229400D01*
X155445489Y-61229400D02*
X155302632Y-61157971D01*
X153945489Y-61800828D02*
X153945489Y-60300828D01*
X153945489Y-61729400D02*
X154088346Y-61800828D01*
X154088346Y-61800828D02*
X154374060Y-61800828D01*
X154374060Y-61800828D02*
X154516917Y-61729400D01*
X154516917Y-61729400D02*
X154588346Y-61657971D01*
X154588346Y-61657971D02*
X154659774Y-61515114D01*
X154659774Y-61515114D02*
X154659774Y-61086542D01*
X154659774Y-61086542D02*
X154588346Y-60943685D01*
X154588346Y-60943685D02*
X154516917Y-60872257D01*
X154516917Y-60872257D02*
X154374060Y-60800828D01*
X154374060Y-60800828D02*
X154088346Y-60800828D01*
X154088346Y-60800828D02*
X153945489Y-60872257D01*
X152659774Y-61729400D02*
X152802631Y-61800828D01*
X152802631Y-61800828D02*
X153088346Y-61800828D01*
X153088346Y-61800828D02*
X153231203Y-61729400D01*
X153231203Y-61729400D02*
X153302631Y-61586542D01*
X153302631Y-61586542D02*
X153302631Y-61015114D01*
X153302631Y-61015114D02*
X153231203Y-60872257D01*
X153231203Y-60872257D02*
X153088346Y-60800828D01*
X153088346Y-60800828D02*
X152802631Y-60800828D01*
X152802631Y-60800828D02*
X152659774Y-60872257D01*
X152659774Y-60872257D02*
X152588346Y-61015114D01*
X152588346Y-61015114D02*
X152588346Y-61157971D01*
X152588346Y-61157971D02*
X153302631Y-61300828D01*
X150802632Y-61800828D02*
X150802632Y-60300828D01*
X150802632Y-60872257D02*
X150659775Y-60800828D01*
X150659775Y-60800828D02*
X150374060Y-60800828D01*
X150374060Y-60800828D02*
X150231203Y-60872257D01*
X150231203Y-60872257D02*
X150159775Y-60943685D01*
X150159775Y-60943685D02*
X150088346Y-61086542D01*
X150088346Y-61086542D02*
X150088346Y-61515114D01*
X150088346Y-61515114D02*
X150159775Y-61657971D01*
X150159775Y-61657971D02*
X150231203Y-61729400D01*
X150231203Y-61729400D02*
X150374060Y-61800828D01*
X150374060Y-61800828D02*
X150659775Y-61800828D01*
X150659775Y-61800828D02*
X150802632Y-61729400D01*
X149588346Y-60800828D02*
X149231203Y-61800828D01*
X148874060Y-60800828D02*
X149231203Y-61800828D01*
X149231203Y-61800828D02*
X149374060Y-62157971D01*
X149374060Y-62157971D02*
X149445489Y-62229400D01*
X149445489Y-62229400D02*
X149588346Y-62300828D01*
X147159775Y-60800828D02*
X147159775Y-62086542D01*
X147159775Y-62086542D02*
X147231203Y-62229400D01*
X147231203Y-62229400D02*
X147374060Y-62300828D01*
X147374060Y-62300828D02*
X147445489Y-62300828D01*
X147159775Y-60300828D02*
X147231203Y-60372257D01*
X147231203Y-60372257D02*
X147159775Y-60443685D01*
X147159775Y-60443685D02*
X147088346Y-60372257D01*
X147088346Y-60372257D02*
X147159775Y-60300828D01*
X147159775Y-60300828D02*
X147159775Y-60443685D01*
X145874060Y-61729400D02*
X146016917Y-61800828D01*
X146016917Y-61800828D02*
X146302632Y-61800828D01*
X146302632Y-61800828D02*
X146445489Y-61729400D01*
X146445489Y-61729400D02*
X146516917Y-61586542D01*
X146516917Y-61586542D02*
X146516917Y-61015114D01*
X146516917Y-61015114D02*
X146445489Y-60872257D01*
X146445489Y-60872257D02*
X146302632Y-60800828D01*
X146302632Y-60800828D02*
X146016917Y-60800828D01*
X146016917Y-60800828D02*
X145874060Y-60872257D01*
X145874060Y-60872257D02*
X145802632Y-61015114D01*
X145802632Y-61015114D02*
X145802632Y-61157971D01*
X145802632Y-61157971D02*
X146516917Y-61300828D01*
X144588346Y-61729400D02*
X144731203Y-61800828D01*
X144731203Y-61800828D02*
X145016918Y-61800828D01*
X145016918Y-61800828D02*
X145159775Y-61729400D01*
X145159775Y-61729400D02*
X145231203Y-61586542D01*
X145231203Y-61586542D02*
X145231203Y-61015114D01*
X145231203Y-61015114D02*
X145159775Y-60872257D01*
X145159775Y-60872257D02*
X145016918Y-60800828D01*
X145016918Y-60800828D02*
X144731203Y-60800828D01*
X144731203Y-60800828D02*
X144588346Y-60872257D01*
X144588346Y-60872257D02*
X144516918Y-61015114D01*
X144516918Y-61015114D02*
X144516918Y-61157971D01*
X144516918Y-61157971D02*
X145231203Y-61300828D01*
X144016918Y-60800828D02*
X143659775Y-61800828D01*
X143659775Y-61800828D02*
X143302632Y-60800828D01*
X142088347Y-61800828D02*
X142088347Y-61015114D01*
X142088347Y-61015114D02*
X142159775Y-60872257D01*
X142159775Y-60872257D02*
X142302632Y-60800828D01*
X142302632Y-60800828D02*
X142588347Y-60800828D01*
X142588347Y-60800828D02*
X142731204Y-60872257D01*
X142088347Y-61729400D02*
X142231204Y-61800828D01*
X142231204Y-61800828D02*
X142588347Y-61800828D01*
X142588347Y-61800828D02*
X142731204Y-61729400D01*
X142731204Y-61729400D02*
X142802632Y-61586542D01*
X142802632Y-61586542D02*
X142802632Y-61443685D01*
X142802632Y-61443685D02*
X142731204Y-61300828D01*
X142731204Y-61300828D02*
X142588347Y-61229400D01*
X142588347Y-61229400D02*
X142231204Y-61229400D01*
X142231204Y-61229400D02*
X142088347Y-61157971D01*
X141374061Y-60800828D02*
X141374061Y-61800828D01*
X141374061Y-60943685D02*
X141302632Y-60872257D01*
X141302632Y-60872257D02*
X141159775Y-60800828D01*
X141159775Y-60800828D02*
X140945489Y-60800828D01*
X140945489Y-60800828D02*
X140802632Y-60872257D01*
X140802632Y-60872257D02*
X140731204Y-61015114D01*
X140731204Y-61015114D02*
X140731204Y-61800828D01*
X156159774Y-143300828D02*
X155588346Y-143300828D01*
X155945489Y-142800828D02*
X155945489Y-144086542D01*
X155945489Y-144086542D02*
X155874060Y-144229400D01*
X155874060Y-144229400D02*
X155731203Y-144300828D01*
X155731203Y-144300828D02*
X155588346Y-144300828D01*
X154516917Y-144229400D02*
X154659774Y-144300828D01*
X154659774Y-144300828D02*
X154945489Y-144300828D01*
X154945489Y-144300828D02*
X155088346Y-144229400D01*
X155088346Y-144229400D02*
X155159774Y-144086542D01*
X155159774Y-144086542D02*
X155159774Y-143515114D01*
X155159774Y-143515114D02*
X155088346Y-143372257D01*
X155088346Y-143372257D02*
X154945489Y-143300828D01*
X154945489Y-143300828D02*
X154659774Y-143300828D01*
X154659774Y-143300828D02*
X154516917Y-143372257D01*
X154516917Y-143372257D02*
X154445489Y-143515114D01*
X154445489Y-143515114D02*
X154445489Y-143657971D01*
X154445489Y-143657971D02*
X155159774Y-143800828D01*
X153159775Y-144229400D02*
X153302632Y-144300828D01*
X153302632Y-144300828D02*
X153588346Y-144300828D01*
X153588346Y-144300828D02*
X153731203Y-144229400D01*
X153731203Y-144229400D02*
X153802632Y-144157971D01*
X153802632Y-144157971D02*
X153874060Y-144015114D01*
X153874060Y-144015114D02*
X153874060Y-143586542D01*
X153874060Y-143586542D02*
X153802632Y-143443685D01*
X153802632Y-143443685D02*
X153731203Y-143372257D01*
X153731203Y-143372257D02*
X153588346Y-143300828D01*
X153588346Y-143300828D02*
X153302632Y-143300828D01*
X153302632Y-143300828D02*
X153159775Y-143372257D01*
X152516918Y-144300828D02*
X152516918Y-142800828D01*
X152374061Y-143729400D02*
X151945489Y-144300828D01*
X151945489Y-143300828D02*
X152516918Y-143872257D01*
X151302632Y-143300828D02*
X151302632Y-144300828D01*
X151302632Y-143443685D02*
X151231203Y-143372257D01*
X151231203Y-143372257D02*
X151088346Y-143300828D01*
X151088346Y-143300828D02*
X150874060Y-143300828D01*
X150874060Y-143300828D02*
X150731203Y-143372257D01*
X150731203Y-143372257D02*
X150659775Y-143515114D01*
X150659775Y-143515114D02*
X150659775Y-144300828D01*
X149374060Y-144229400D02*
X149516917Y-144300828D01*
X149516917Y-144300828D02*
X149802632Y-144300828D01*
X149802632Y-144300828D02*
X149945489Y-144229400D01*
X149945489Y-144229400D02*
X150016917Y-144086542D01*
X150016917Y-144086542D02*
X150016917Y-143515114D01*
X150016917Y-143515114D02*
X149945489Y-143372257D01*
X149945489Y-143372257D02*
X149802632Y-143300828D01*
X149802632Y-143300828D02*
X149516917Y-143300828D01*
X149516917Y-143300828D02*
X149374060Y-143372257D01*
X149374060Y-143372257D02*
X149302632Y-143515114D01*
X149302632Y-143515114D02*
X149302632Y-143657971D01*
X149302632Y-143657971D02*
X150016917Y-143800828D01*
X148874060Y-143300828D02*
X148302632Y-143300828D01*
X148659775Y-142800828D02*
X148659775Y-144086542D01*
X148659775Y-144086542D02*
X148588346Y-144229400D01*
X148588346Y-144229400D02*
X148445489Y-144300828D01*
X148445489Y-144300828D02*
X148302632Y-144300828D01*
X147802632Y-144157971D02*
X147731203Y-144229400D01*
X147731203Y-144229400D02*
X147802632Y-144300828D01*
X147802632Y-144300828D02*
X147874060Y-144229400D01*
X147874060Y-144229400D02*
X147802632Y-144157971D01*
X147802632Y-144157971D02*
X147802632Y-144300828D01*
X146445489Y-144300828D02*
X146445489Y-142800828D01*
X146445489Y-144229400D02*
X146588346Y-144300828D01*
X146588346Y-144300828D02*
X146874060Y-144300828D01*
X146874060Y-144300828D02*
X147016917Y-144229400D01*
X147016917Y-144229400D02*
X147088346Y-144157971D01*
X147088346Y-144157971D02*
X147159774Y-144015114D01*
X147159774Y-144015114D02*
X147159774Y-143586542D01*
X147159774Y-143586542D02*
X147088346Y-143443685D01*
X147088346Y-143443685D02*
X147016917Y-143372257D01*
X147016917Y-143372257D02*
X146874060Y-143300828D01*
X146874060Y-143300828D02*
X146588346Y-143300828D01*
X146588346Y-143300828D02*
X146445489Y-143372257D01*
X145159774Y-144229400D02*
X145302631Y-144300828D01*
X145302631Y-144300828D02*
X145588346Y-144300828D01*
X145588346Y-144300828D02*
X145731203Y-144229400D01*
X145731203Y-144229400D02*
X145802631Y-144086542D01*
X145802631Y-144086542D02*
X145802631Y-143515114D01*
X145802631Y-143515114D02*
X145731203Y-143372257D01*
X145731203Y-143372257D02*
X145588346Y-143300828D01*
X145588346Y-143300828D02*
X145302631Y-143300828D01*
X145302631Y-143300828D02*
X145159774Y-143372257D01*
X145159774Y-143372257D02*
X145088346Y-143515114D01*
X145088346Y-143515114D02*
X145088346Y-143657971D01*
X145088346Y-143657971D02*
X145802631Y-143800828D01*
X144588346Y-143300828D02*
X144231203Y-144300828D01*
X144231203Y-144300828D02*
X143874060Y-143300828D01*
D11*
%TO.C,G\u002A\u002A\u002A*%
G36*
X153343104Y-71020120D02*
G01*
X153204626Y-71295203D01*
X153156108Y-71386563D01*
X153041582Y-71618258D01*
X152997498Y-71771605D01*
X153015545Y-71900832D01*
X153087416Y-72060165D01*
X153149089Y-72231473D01*
X153202920Y-72518882D01*
X153242679Y-72928193D01*
X153271418Y-73483028D01*
X153287266Y-73865689D01*
X153308457Y-74221122D01*
X153336564Y-74466356D01*
X153377534Y-74634325D01*
X153437313Y-74757964D01*
X153521845Y-74870208D01*
X153728720Y-75116066D01*
X153115405Y-75116066D01*
X152969871Y-75115746D01*
X152717852Y-75109413D01*
X152595911Y-75088350D01*
X152576130Y-75044022D01*
X152630590Y-74967899D01*
X152653079Y-74940200D01*
X152732796Y-74798166D01*
X152794881Y-74591909D01*
X152843992Y-74295151D01*
X152884789Y-73881615D01*
X152921932Y-73325026D01*
X152940602Y-72869478D01*
X152924252Y-72508210D01*
X152853587Y-72247337D01*
X152711726Y-72051825D01*
X152481785Y-71886643D01*
X152146883Y-71716759D01*
X151812965Y-71576818D01*
X151505682Y-71499813D01*
X151203007Y-71491659D01*
X151145064Y-71495686D01*
X150914547Y-71528883D01*
X150790165Y-71600819D01*
X150718611Y-71738676D01*
X150695742Y-71814539D01*
X150679901Y-72107422D01*
X150781008Y-72334254D01*
X150984457Y-72455646D01*
X151142572Y-72491115D01*
X151338755Y-72549889D01*
X151392201Y-72624272D01*
X151311316Y-72749699D01*
X151104510Y-72961609D01*
X151079048Y-72987207D01*
X150878385Y-73208046D01*
X150796292Y-73351193D01*
X150818667Y-73440266D01*
X150820728Y-73442304D01*
X150944725Y-73492975D01*
X151139979Y-73434199D01*
X151250273Y-73390952D01*
X151389862Y-73373772D01*
X151404347Y-73434812D01*
X151274393Y-73556481D01*
X151152408Y-73670539D01*
X151089001Y-73801478D01*
X151081554Y-73847861D01*
X150990962Y-73949301D01*
X150931942Y-74024913D01*
X150949791Y-74196982D01*
X151047301Y-74415836D01*
X151209915Y-74635831D01*
X151259057Y-74685096D01*
X151447220Y-74817697D01*
X151613353Y-74866039D01*
X151718575Y-74825819D01*
X151724001Y-74692733D01*
X151705585Y-74588389D01*
X151761245Y-74532108D01*
X151923671Y-74570155D01*
X152209557Y-74702879D01*
X152561367Y-74882359D01*
X152332021Y-75002526D01*
X152285213Y-75023658D01*
X152017080Y-75086508D01*
X151701995Y-75098213D01*
X151444327Y-75063915D01*
X151223704Y-74965433D01*
X150992753Y-74765495D01*
X150882301Y-74650848D01*
X150778349Y-74515754D01*
X150705048Y-74359268D01*
X150650540Y-74144613D01*
X150602967Y-73835013D01*
X150550473Y-73393690D01*
X150503589Y-73213274D01*
X150416049Y-73086774D01*
X150360887Y-73037500D01*
X150402628Y-72962652D01*
X150494670Y-72861261D01*
X150441025Y-72778779D01*
X150253752Y-72745399D01*
X150049406Y-72704395D01*
X149818297Y-72586338D01*
X149637826Y-72429719D01*
X149565001Y-72273587D01*
X149592335Y-72174250D01*
X149695320Y-72178237D01*
X149861334Y-72322066D01*
X149901037Y-72358494D01*
X150071502Y-72446438D01*
X150267530Y-72490391D01*
X150429136Y-72481832D01*
X150496334Y-72412244D01*
X150471667Y-72292899D01*
X150406972Y-72098049D01*
X150363501Y-71961047D01*
X150357718Y-71691678D01*
X150498916Y-71500062D01*
X150794484Y-71372361D01*
X150935235Y-71332826D01*
X151097259Y-71261564D01*
X151161956Y-71154057D01*
X151173668Y-70962360D01*
X151223304Y-70673869D01*
X151244478Y-70628549D01*
X151681667Y-70628549D01*
X151753475Y-70666197D01*
X151951295Y-70709019D01*
X152230937Y-70746289D01*
X152503130Y-70778799D01*
X152766570Y-70820239D01*
X152922159Y-70857036D01*
X152959372Y-70869771D01*
X153027293Y-70865441D01*
X152990076Y-70797121D01*
X152872189Y-70694338D01*
X152698098Y-70586622D01*
X152658645Y-70569250D01*
X152450401Y-70522706D01*
X152194781Y-70507582D01*
X151945585Y-70521661D01*
X151756614Y-70562723D01*
X151681667Y-70628549D01*
X151244478Y-70628549D01*
X151367104Y-70366087D01*
X151379300Y-70348028D01*
X151494935Y-70198111D01*
X151619216Y-70113866D01*
X151805698Y-70072543D01*
X152107938Y-70051392D01*
X152358629Y-70045241D01*
X152762162Y-70053420D01*
X153106539Y-70079488D01*
X153275064Y-70101687D01*
X153439141Y-70136354D01*
X153474482Y-70179616D01*
X153406223Y-70245388D01*
X153342611Y-70298452D01*
X153299256Y-70407694D01*
X153358494Y-70583982D01*
X153400650Y-70698314D01*
X153404737Y-70838299D01*
X153395537Y-70865441D01*
X153343104Y-71020120D01*
G37*
G36*
X149041590Y-74162177D02*
G01*
X148986477Y-74326068D01*
X148866501Y-74384640D01*
X148743007Y-74429566D01*
X148736224Y-74591597D01*
X148847508Y-74866270D01*
X148902593Y-74984548D01*
X148925915Y-75098035D01*
X148868363Y-75092933D01*
X148747632Y-74976560D01*
X148581419Y-74756233D01*
X148447602Y-74562553D01*
X148367230Y-74472692D01*
X148330477Y-74499107D01*
X148310544Y-74629233D01*
X148278864Y-74788951D01*
X148235211Y-74862066D01*
X148220497Y-74859341D01*
X148106909Y-74758065D01*
X147945045Y-74526134D01*
X147750078Y-74184733D01*
X147655501Y-74032117D01*
X147421148Y-73737978D01*
X147161599Y-73483814D01*
X146775297Y-73163896D01*
X146441599Y-73374550D01*
X146418487Y-73389193D01*
X146172154Y-73559992D01*
X146066763Y-73681668D01*
X146092379Y-73778822D01*
X146239066Y-73876057D01*
X146279797Y-73900189D01*
X146472265Y-74048605D01*
X146720991Y-74273293D01*
X146982667Y-74535829D01*
X147490667Y-75073733D01*
X147001069Y-75099207D01*
X146818979Y-75106937D01*
X146620463Y-75096425D01*
X146459222Y-75039602D01*
X146281031Y-74913972D01*
X146031668Y-74697040D01*
X145865330Y-74552273D01*
X145619443Y-74367144D01*
X145432673Y-74288655D01*
X145268245Y-74305453D01*
X145089385Y-74406188D01*
X144894092Y-74542977D01*
X145171822Y-74829521D01*
X145449552Y-75116066D01*
X144797943Y-75116066D01*
X144676259Y-75115761D01*
X144392643Y-75108309D01*
X144232794Y-75084268D01*
X144162196Y-75034926D01*
X144146334Y-74951568D01*
X144163297Y-74883601D01*
X144226460Y-74790403D01*
X144349040Y-74664661D01*
X144544207Y-74495544D01*
X144825129Y-74272223D01*
X145204975Y-73983868D01*
X145696913Y-73619648D01*
X146314112Y-73168733D01*
X146411397Y-73097196D01*
X146787251Y-72807326D01*
X146856794Y-72749604D01*
X147533001Y-72749604D01*
X147593949Y-73024502D01*
X147810449Y-73374740D01*
X148177082Y-73751705D01*
X148374932Y-73912605D01*
X148592949Y-74055091D01*
X148745538Y-74113646D01*
X148803001Y-74073024D01*
X148757048Y-73997875D01*
X148635312Y-73824952D01*
X148464334Y-73592066D01*
X148300631Y-73353608D01*
X148174104Y-73129225D01*
X148125667Y-72986282D01*
X148125337Y-72978286D01*
X148047972Y-72836285D01*
X147875872Y-72705240D01*
X147757042Y-72645123D01*
X147606431Y-72587563D01*
X147544822Y-72620698D01*
X147533001Y-72749604D01*
X146856794Y-72749604D01*
X147125009Y-72526982D01*
X147390912Y-72285046D01*
X147551201Y-72110399D01*
X147721079Y-71903703D01*
X147873730Y-71788469D01*
X147963275Y-71820909D01*
X147982983Y-72002704D01*
X147982537Y-72009901D01*
X148027642Y-72223308D01*
X148210464Y-72406825D01*
X148249939Y-72437833D01*
X148455599Y-72691868D01*
X148633893Y-73064854D01*
X148719599Y-73282389D01*
X148841891Y-73558640D01*
X148940731Y-73745117D01*
X149025625Y-73946503D01*
X149034991Y-74073024D01*
X149041590Y-74162177D01*
G37*
G36*
X149132312Y-71985683D02*
G01*
X149214388Y-72121963D01*
X149279143Y-72274654D01*
X149272106Y-72307177D01*
X149180193Y-72224548D01*
X149098824Y-72115180D01*
X149071541Y-71982112D01*
X149075397Y-71973251D01*
X149132312Y-71985683D01*
G37*
G36*
X148626983Y-71934010D02*
G01*
X148620997Y-72019884D01*
X148582515Y-72045135D01*
X148565737Y-72015181D01*
X148575831Y-71882858D01*
X148606306Y-71843668D01*
X148626983Y-71934010D01*
G37*
G36*
X147451418Y-71561649D02*
G01*
X147527676Y-71578979D01*
X147448334Y-71644733D01*
X147330793Y-71707094D01*
X147229835Y-71719525D01*
X147236667Y-71644733D01*
X147279077Y-71604506D01*
X147432164Y-71561362D01*
X147451418Y-71561649D01*
G37*
G36*
X146523906Y-70405893D02*
G01*
X146427640Y-70566890D01*
X146360784Y-70717308D01*
X146388651Y-70783373D01*
X146510076Y-70798066D01*
X146531759Y-70798352D01*
X146792037Y-70865023D01*
X146929589Y-71030897D01*
X146934648Y-71270175D01*
X146797445Y-71557058D01*
X146699885Y-71667469D01*
X146631185Y-71664379D01*
X146621898Y-71523334D01*
X146677272Y-71257423D01*
X146763623Y-70944686D01*
X146365145Y-70996047D01*
X146280064Y-71007119D01*
X145935410Y-71053404D01*
X145628001Y-71096475D01*
X145289334Y-71145542D01*
X145617794Y-70950637D01*
X145907047Y-70766872D01*
X146165047Y-70570669D01*
X146309440Y-70416141D01*
X146321277Y-70320267D01*
X146295684Y-70306564D01*
X146130529Y-70268248D01*
X145856513Y-70230385D01*
X145516944Y-70199478D01*
X144781334Y-70147560D01*
X145740740Y-70134146D01*
X146700145Y-70120733D01*
X146523906Y-70405893D01*
G37*
G36*
X152682886Y-66874925D02*
G01*
X152739573Y-67033870D01*
X152819159Y-67278682D01*
X152857251Y-67412693D01*
X152917146Y-67739672D01*
X152943925Y-68138264D01*
X152941862Y-68656433D01*
X152918686Y-69570399D01*
X153161603Y-69598614D01*
X153232047Y-69608287D01*
X153332145Y-69645176D01*
X153283927Y-69705213D01*
X153163569Y-69748992D01*
X152951667Y-69761665D01*
X152740001Y-69739733D01*
X152697409Y-68300399D01*
X152686630Y-67924511D01*
X152675323Y-67497220D01*
X152667364Y-67154994D01*
X152663392Y-66925893D01*
X152664049Y-66837981D01*
X152682886Y-66874925D01*
G37*
G36*
X147680727Y-64329344D02*
G01*
X147865303Y-64417872D01*
X148127335Y-64567218D01*
X148408442Y-64715990D01*
X148635904Y-64806017D01*
X148864341Y-64852063D01*
X149148373Y-64868892D01*
X149542619Y-64871268D01*
X149763584Y-64868334D01*
X150173932Y-64848881D01*
X150532586Y-64815210D01*
X150780760Y-64772032D01*
X151038563Y-64727156D01*
X151371537Y-64757792D01*
X151612554Y-64894591D01*
X151739562Y-65122370D01*
X151730509Y-65425945D01*
X151714676Y-65507438D01*
X151749262Y-65619486D01*
X151913364Y-65678084D01*
X152240498Y-65750249D01*
X152486813Y-65820075D01*
X152623027Y-65886559D01*
X152679885Y-65961050D01*
X152680223Y-65962073D01*
X152666115Y-66035425D01*
X152528334Y-66014399D01*
X152444734Y-65993844D01*
X152363063Y-66012040D01*
X152395059Y-66092622D01*
X152524807Y-66210608D01*
X152736392Y-66341011D01*
X152832149Y-66391376D01*
X152969596Y-66476768D01*
X152978568Y-66529275D01*
X152876180Y-66577907D01*
X152729559Y-66592509D01*
X152467300Y-66521103D01*
X152191541Y-66365502D01*
X151958684Y-66151896D01*
X151797653Y-66002898D01*
X151481803Y-65879564D01*
X151115139Y-65899256D01*
X150718044Y-66059429D01*
X150310900Y-66357540D01*
X150275670Y-66388901D01*
X150058147Y-66551558D01*
X149936157Y-66577042D01*
X149912576Y-66466574D01*
X149990278Y-66221374D01*
X150002608Y-66193319D01*
X150170346Y-65938220D01*
X150406960Y-65703223D01*
X150662065Y-65530961D01*
X150885277Y-65464066D01*
X151016927Y-65442401D01*
X151046668Y-65379399D01*
X150991129Y-65341944D01*
X150797297Y-65304672D01*
X150521658Y-65296043D01*
X150216789Y-65314269D01*
X149935267Y-65357566D01*
X149729669Y-65424145D01*
X149662573Y-65465682D01*
X149451869Y-65654883D01*
X149265174Y-65892934D01*
X149189964Y-66001978D01*
X149057466Y-66147096D01*
X148969301Y-66181858D01*
X148945879Y-66160389D01*
X148894740Y-66002524D01*
X148894595Y-65771927D01*
X148940570Y-65536689D01*
X149027790Y-65364899D01*
X149107259Y-65267042D01*
X149086277Y-65218695D01*
X148919606Y-65210066D01*
X148731142Y-65245819D01*
X148526313Y-65379399D01*
X148514651Y-65392392D01*
X148291055Y-65520797D01*
X148010461Y-65536933D01*
X147742340Y-65435801D01*
X147526058Y-65309167D01*
X147346447Y-65259962D01*
X147282163Y-65324903D01*
X147341563Y-65491550D01*
X147533001Y-65747464D01*
X147682916Y-65928999D01*
X147769745Y-66092307D01*
X147740213Y-66212588D01*
X147598894Y-66330310D01*
X147523955Y-66382127D01*
X147482086Y-66438038D01*
X147563107Y-66474751D01*
X147789394Y-66513818D01*
X147907609Y-66537573D01*
X148204495Y-66627856D01*
X148519747Y-66753920D01*
X148808208Y-66894708D01*
X149024725Y-67029165D01*
X149124141Y-67136233D01*
X149112940Y-67199628D01*
X148977475Y-67237273D01*
X148715714Y-67208616D01*
X148345045Y-67114149D01*
X148096809Y-67052878D01*
X147752291Y-67003796D01*
X147433572Y-66992545D01*
X147186840Y-67020084D01*
X147058285Y-67087374D01*
X147047176Y-67108625D01*
X146990329Y-67279324D01*
X146936444Y-67517337D01*
X146923474Y-67589941D01*
X146905359Y-67761035D01*
X146946426Y-67817867D01*
X147064878Y-67800581D01*
X147223087Y-67818926D01*
X147423085Y-67949093D01*
X147594492Y-68153215D01*
X147689161Y-68386131D01*
X147689586Y-68388590D01*
X147698880Y-68491758D01*
X147651184Y-68484890D01*
X147514371Y-68363899D01*
X147462302Y-68316177D01*
X147303973Y-68194856D01*
X147238416Y-68204011D01*
X147254469Y-68342733D01*
X147256566Y-68351090D01*
X147248328Y-68484806D01*
X147161266Y-68511862D01*
X147038659Y-68440567D01*
X146923787Y-68279233D01*
X146890505Y-68227130D01*
X146743288Y-68079921D01*
X146537268Y-67923242D01*
X146318983Y-67787362D01*
X146134972Y-67702548D01*
X146031774Y-67699070D01*
X146032262Y-67722696D01*
X146093336Y-67851484D01*
X146215276Y-68046510D01*
X146275115Y-68140747D01*
X146368156Y-68328706D01*
X146383798Y-68437436D01*
X146341509Y-68463277D01*
X146166870Y-68498325D01*
X145914341Y-68512066D01*
X145877001Y-68512263D01*
X145633021Y-68532345D01*
X145553322Y-68587561D01*
X145637612Y-68681007D01*
X145885597Y-68815781D01*
X145937990Y-68841819D01*
X146109250Y-68947886D01*
X146178334Y-69027539D01*
X146177188Y-69035949D01*
X146092048Y-69127394D01*
X145916594Y-69233795D01*
X145714026Y-69321968D01*
X145547539Y-69358733D01*
X145485323Y-69367833D01*
X145416334Y-69434341D01*
X145456787Y-69504738D01*
X145617482Y-69581686D01*
X145846592Y-69612733D01*
X145938401Y-69627659D01*
X146009001Y-69697399D01*
X146001309Y-69736717D01*
X145935339Y-69773815D01*
X145773000Y-69770159D01*
X145479834Y-69727723D01*
X145286574Y-69677313D01*
X145178544Y-69579161D01*
X145235908Y-69444736D01*
X145458667Y-69274066D01*
X145525757Y-69230756D01*
X145689485Y-69104827D01*
X145755001Y-69019965D01*
X145722904Y-68982244D01*
X145569669Y-68899760D01*
X145332663Y-68808730D01*
X145173639Y-68751744D01*
X144965384Y-68661275D01*
X144864625Y-68594507D01*
X144868980Y-68520832D01*
X145006636Y-68426270D01*
X145270919Y-68341427D01*
X145637864Y-68276168D01*
X146113073Y-68215733D01*
X145680037Y-67850859D01*
X145465176Y-67659256D01*
X145307302Y-67497575D01*
X145247001Y-67406359D01*
X145287730Y-67349493D01*
X145460499Y-67331965D01*
X145747745Y-67380498D01*
X146126639Y-67492845D01*
X146351551Y-67570197D01*
X146508770Y-67604232D01*
X146607362Y-67566752D01*
X146669007Y-67433891D01*
X146715386Y-67181778D01*
X146768177Y-66786547D01*
X146805972Y-66489311D01*
X146821482Y-66255066D01*
X146798425Y-66087458D01*
X146728235Y-65932164D01*
X146602348Y-65734865D01*
X146462206Y-65481667D01*
X146356049Y-65126282D01*
X146368448Y-64817059D01*
X146502393Y-64588286D01*
X146595529Y-64528458D01*
X146834227Y-64431722D01*
X147124141Y-64354470D01*
X147259508Y-64328685D01*
X147502116Y-64301610D01*
X147680727Y-64329344D01*
G37*
G36*
X152399762Y-68711414D02*
G01*
X152449690Y-68748041D01*
X152489324Y-68909716D01*
X152437149Y-69150635D01*
X152298713Y-69431284D01*
X152279604Y-69460529D01*
X152163506Y-69573024D01*
X152085762Y-69539697D01*
X152058545Y-69379559D01*
X152094027Y-69111618D01*
X152141845Y-68913959D01*
X152205582Y-68743441D01*
X152283441Y-68686546D01*
X152399762Y-68711414D01*
G37*
G36*
X151386115Y-68597987D02*
G01*
X151405488Y-68758961D01*
X151384180Y-68995935D01*
X151329788Y-69249225D01*
X151249906Y-69459148D01*
X151151898Y-69583419D01*
X151057472Y-69580082D01*
X150996822Y-69440701D01*
X150986784Y-69182947D01*
X151029116Y-68936480D01*
X151122601Y-68709665D01*
X151241907Y-68573652D01*
X151363437Y-68567029D01*
X151386115Y-68597987D01*
G37*
G36*
X148851522Y-68178535D02*
G01*
X148908824Y-68242705D01*
X148927688Y-68346475D01*
X148910383Y-68387172D01*
X148947905Y-68459114D01*
X149061945Y-68463658D01*
X149190698Y-68390464D01*
X149270249Y-68331527D01*
X149436319Y-68268771D01*
X149585151Y-68260554D01*
X149649667Y-68317535D01*
X149636931Y-68348591D01*
X149539182Y-68479229D01*
X149376601Y-68658738D01*
X149237382Y-68788788D01*
X149034220Y-68899538D01*
X148872691Y-68855896D01*
X148734872Y-68657835D01*
X148719699Y-68624023D01*
X148666122Y-68414580D01*
X148677234Y-68241755D01*
X148742534Y-68148692D01*
X148851522Y-68178535D01*
G37*
G36*
X148558688Y-67922037D02*
G01*
X148569946Y-68096457D01*
X148528754Y-68363899D01*
X148493160Y-68501117D01*
X148425945Y-68691401D01*
X148371451Y-68766066D01*
X148318592Y-68749571D01*
X148181423Y-68632710D01*
X148031047Y-68444582D01*
X147899740Y-68233870D01*
X147819774Y-68049254D01*
X147823425Y-67939419D01*
X147826731Y-67936805D01*
X147920832Y-67962063D01*
X148069442Y-68075682D01*
X148266550Y-68260855D01*
X148369495Y-68034914D01*
X148420617Y-67938592D01*
X148505430Y-67862221D01*
X148558688Y-67922037D01*
G37*
G36*
X149396611Y-67922140D02*
G01*
X149478053Y-67993835D01*
X149423890Y-68116955D01*
X149367015Y-68147434D01*
X149201856Y-68173399D01*
X149176527Y-68173107D01*
X149085959Y-68145665D01*
X149141667Y-68046399D01*
X149215320Y-67979130D01*
X149363701Y-67919399D01*
X149396611Y-67922140D01*
G37*
%TD*%
M02*
